<?xml version="1.0" encoding="UTF-8" standalone="no"?>
<svg
   height="128px"
   viewBox="0 0 128 128"
   width="128px"
   version="1.1"
   id="svg425"
   sodipodi:docname="im.bernard.Parolu.svg"
   inkscape:version="1.2.2 (b0a8486541, 2022-12-01)"
   xmlns:inkscape="http://www.inkscape.org/namespaces/inkscape"
   xmlns:sodipodi="http://sodipodi.sourceforge.net/DTD/sodipodi-0.dtd"
   xmlns:xlink="http://www.w3.org/1999/xlink"
   xmlns="http://www.w3.org/2000/svg"
   xmlns:svg="http://www.w3.org/2000/svg">
  <sodipodi:namedview
     id="namedview427"
     pagecolor="#ffffff"
     bordercolor="#666666"
     borderopacity="1.0"
     inkscape:showpageshadow="2"
     inkscape:pageopacity="0.0"
     inkscape:pagecheckerboard="0"
     inkscape:deskcolor="#d1d1d1"
     showgrid="false"
     inkscape:zoom="1.84375"
     inkscape:cx="64"
     inkscape:cy="64.271186"
     inkscape:window-width="1920"
     inkscape:window-height="1008"
     inkscape:window-x="0"
     inkscape:window-y="0"
     inkscape:window-maximized="1"
     inkscape:current-layer="svg425" />
  <defs
     id="defs327">
    <filter
       id="a"
       height="1.0178075"
       width="1.0172414"
       x="-0.017241379"
       y="0">
      <feColorMatrix
         color-interpolation-filters="sRGB"
         values="0 0 0 0 1 0 0 0 0 1 0 0 0 0 1 0 0 0 1 0"
         id="feColorMatrix2" />
    </filter>
    <linearGradient
       id="b"
       gradientUnits="userSpaceOnUse">
      <stop
         offset="0"
         stop-color="#0e7853"
         id="stop5" />
      <stop
         offset="1"
         stop-color="#15b27b"
         id="stop7" />
    </linearGradient>
    <linearGradient
       id="c"
       gradientTransform="matrix(0.558816 0 0 0.588227 177.923401 200.671448)"
       x1="-287.972015"
       x2="-287.972015"
       xlink:href="#b"
       y1="114.640022"
       y2="92.859024" />
    <linearGradient
       id="d"
       gradientTransform="matrix(0.558816 0 0 0.588227 177.923401 144.671448)"
       x1="-287.972015"
       x2="-287.972015"
       xlink:href="#b"
       y1="114.640022"
       y2="92.859024" />
    <linearGradient
       id="e"
       gradientTransform="matrix(0.558816 0 0 0.588227 177.923401 158.671448)"
       x1="-287.972015"
       x2="-287.972015"
       xlink:href="#b"
       y1="114.640022"
       y2="92.859024" />
    <linearGradient
       id="f"
       gradientTransform="matrix(0.558816 0 0 0.588227 177.923401 172.671448)"
       x1="-287.972015"
       x2="-287.972015"
       xlink:href="#b"
       y1="114.640022"
       y2="92.859024" />
    <linearGradient
       id="g"
       gradientTransform="matrix(0.558816 0 0 0.588227 177.923401 186.671448)"
       x1="-287.972015"
       x2="-287.972015"
       xlink:href="#b"
       y1="114.640022"
       y2="92.859024" />
    <linearGradient
       id="h"
       gradientTransform="matrix(0.558816 0 0 0.588227 177.923401 214.671448)"
       x1="-287.972015"
       x2="-287.972015"
       xlink:href="#b"
       y1="114.640022"
       y2="92.859024" />
    <linearGradient
       id="i"
       gradientUnits="userSpaceOnUse"
       x1="116"
       x2="116"
       y1="63.869493"
       y2="95.869493">
      <stop
         offset="0"
         stop-color="#3d3846"
         id="stop16" />
      <stop
         offset="0.5"
         stop-color="#c0bfbc"
         id="stop18" />
      <stop
         offset="1"
         stop-color="#5e5c64"
         id="stop20" />
    </linearGradient>
    <linearGradient
       id="j"
       gradientTransform="matrix(0.846154 0 0 1.264706 9.8461 -208.293571)"
       gradientUnits="userSpaceOnUse"
       x1="12"
       x2="116"
       y1="224"
       y2="224">
      <stop
         offset="0"
         stop-color="#c0bfbc"
         id="stop23" />
      <stop
         offset="0.0384615"
         stop-color="#dfdedd"
         id="stop25" />
      <stop
         offset="0.0769231"
         stop-color="#c0bfbc"
         id="stop27" />
      <stop
         offset="0.923077"
         stop-color="#c0bfbc"
         id="stop29" />
      <stop
         offset="0.961538"
         stop-color="#dddcda"
         id="stop31" />
      <stop
         offset="1"
         stop-color="#c0bfbc"
         id="stop33" />
    </linearGradient>
    <linearGradient
       id="k"
       gradientUnits="userSpaceOnUse"
       x1="76"
       x2="76"
       y1="40"
       y2="120">
      <stop
         offset="0"
         stop-color="#b83bf7"
         id="stop36" />
      <stop
         offset="0.298833"
         stop-color="#5d5c60"
         id="stop38" />
      <stop
         offset="0.498054"
         stop-color="#c0bfbc"
         id="stop40" />
      <stop
         offset="0.697276"
         stop-color="#5d5c60"
         id="stop42" />
      <stop
         offset="1"
         stop-color="#b83bf7"
         id="stop44" />
    </linearGradient>
    <linearGradient
       id="l"
       gradientUnits="userSpaceOnUse"
       x1="100"
       x2="100"
       y1="40"
       y2="120.3125">
      <stop
         offset="0"
         stop-color="#15b27b"
         id="stop47" />
      <stop
         offset="0.298833"
         stop-color="#1adb97"
         id="stop49" />
      <stop
         offset="0.498054"
         stop-color="#5fedbb"
         id="stop51" />
      <stop
         offset="0.697276"
         stop-color="#1adb97"
         id="stop53" />
      <stop
         offset="1"
         stop-color="#15b27b"
         id="stop55" />
    </linearGradient>
    <clipPath
       id="m">
      <path
         d="m 102 65 h 26 v 30 h -26 z m 0 0"
         id="path58" />
    </clipPath>
    <clipPath
       id="n">
      <path
         d="m 104.941406 65 c -1.632812 0.03125 -2.941406 1.363281 -2.941406 3 v 24 c 0 2.121094 2.144531 3.570312 4.113281 2.785156 l 20 -8 c 1.140625 -0.457031 1.886719 -1.558594 1.886719 -2.785156 v -8 c 0 -1.226562 -0.746094 -2.332031 -1.886719 -2.785156 l -20 -8 c -0.371093 -0.148438 -0.769531 -0.222656 -1.171875 -0.214844 z m 0 0"
         id="path61" />
    </clipPath>
    <mask
       id="o">
      <g
         filter="url(#a)"
         id="g66">
        <rect
           fill-opacity="0.3"
           height="153.6"
           width="153.6"
           x="-12.8"
           y="-12.8"
           id="rect64" />
      </g>
    </mask>
    <mask
       id="p">
      <g
         filter="url(#a)"
         id="g71">
        <rect
           fill-opacity="0.3"
           height="153.6"
           width="153.6"
           x="-12.8"
           y="-12.8"
           id="rect69" />
      </g>
    </mask>
    <mask
       id="q">
      <g
         filter="url(#a)"
         id="g76">
        <rect
           fill-opacity="0.3"
           height="153.6"
           width="153.6"
           x="-12.8"
           y="-12.8"
           id="rect74" />
      </g>
    </mask>
    <mask
       id="r">
      <g
         filter="url(#a)"
         id="g81">
        <rect
           fill-opacity="0.3"
           height="153.6"
           width="153.6"
           x="-12.8"
           y="-12.8"
           id="rect79" />
      </g>
    </mask>
    <linearGradient
       id="s"
       gradientTransform="matrix(1 0 0 -1 4 504.3125)"
       x1="116"
       x2="116"
       xlink:href="#b"
       y1="212"
       y2="292" />
    <mask
       id="t">
      <g
         filter="url(#a)"
         id="g87">
        <rect
           fill-opacity="0.3"
           height="153.6"
           width="153.6"
           x="-12.8"
           y="-12.8"
           id="rect85" />
      </g>
    </mask>
    <clipPath
       id="u">
      <path
         d="m 0 51 h 51 v 66 h -51 z m 0 0"
         id="path90" />
    </clipPath>
    <clipPath
       id="v">
      <path
         d="m 0 0 h 51 v 61 h -51 z m 0 0"
         id="path93" />
    </clipPath>
    <clipPath
       id="w">
      <path
         d="m 0 9 h 51 v 66 h -51 z m 0 0"
         id="path96" />
    </clipPath>
    <clipPath
       id="x">
      <path
         d="m 0 23 h 51 v 66 h -51 z m 0 0"
         id="path99" />
    </clipPath>
    <clipPath
       id="y">
      <path
         d="m 0 37 h 51 v 66 h -51 z m 0 0"
         id="path102" />
    </clipPath>
    <clipPath
       id="z">
      <path
         d="m 0 65 h 51 v 63 h -51 z m 0 0"
         id="path105" />
    </clipPath>
    <clipPath
       id="A">
      <path
         d="m 0 37 h 51 v 53 h -51 z m 0 0"
         id="path108" />
    </clipPath>
    <clipPath
       id="B">
      <path
         d="m 0 9 h 51 v 53 h -51 z m 0 0"
         id="path111" />
    </clipPath>
    <clipPath
       id="C">
      <path
         d="m 0 0 h 51 v 48 h -51 z m 0 0"
         id="path114" />
    </clipPath>
    <clipPath
       id="D">
      <path
         d="m 0 23 h 51 v 53 h -51 z m 0 0"
         id="path117" />
    </clipPath>
    <clipPath
       id="E">
      <path
         d="m 0 51 h 51 v 53 h -51 z m 0 0"
         id="path120" />
    </clipPath>
    <clipPath
       id="F">
      <path
         d="m 0 65 h 51 v 53 h -51 z m 0 0"
         id="path123" />
    </clipPath>
    <clipPath
       id="G">
      <path
         d="m 102 65 h 26 v 30 h -26 z m 0 0"
         id="path126" />
    </clipPath>
    <clipPath
       id="H">
      <path
         d="m 104.941406 65 c -1.632812 0.03125 -2.941406 1.363281 -2.941406 3 v 24 c 0 2.121094 2.144531 3.570312 4.113281 2.785156 l 20 -8 c 1.140625 -0.457031 1.886719 -1.558594 1.886719 -2.785156 v -8 c 0 -1.226562 -0.746094 -2.332031 -1.886719 -2.785156 l -20 -8 c -0.371093 -0.148438 -0.769531 -0.222656 -1.171875 -0.214844 z m 0 0"
         id="path129" />
    </clipPath>
    <mask
       id="I">
      <g
         filter="url(#a)"
         id="g134">
        <rect
           fill-opacity="0.3"
           height="221.184"
           width="221.184"
           x="-46.592"
           y="-46.592"
           id="rect132" />
      </g>
    </mask>
    <clipPath
       id="J">
      <rect
         height="152"
         width="192"
         id="rect137" />
    </clipPath>
    <g
       id="K"
       clip-path="url(#J)">
      <path
         d="m 124 89 h 12 v 2 h -12 z m 0 0"
         fill="#5e5c64"
         id="path140" />
    </g>
    <mask
       id="L">
      <g
         filter="url(#a)"
         id="g145">
        <rect
           fill-opacity="0.3"
           height="221.184"
           width="221.184"
           x="-46.592"
           y="-46.592"
           id="rect143" />
      </g>
    </mask>
    <clipPath
       id="M">
      <rect
         height="152"
         width="192"
         id="rect148" />
    </clipPath>
    <g
       id="N"
       clip-path="url(#M)">
      <path
         d="m 124 93 h 12 v 2 h -12 z m 0 0"
         fill="#5e5c64"
         id="path151" />
    </g>
    <mask
       id="O">
      <g
         filter="url(#a)"
         id="g156">
        <rect
           fill-opacity="0.3"
           height="221.184"
           width="221.184"
           x="-46.592"
           y="-46.592"
           id="rect154" />
      </g>
    </mask>
    <clipPath
       id="P">
      <rect
         height="152"
         width="192"
         id="rect159" />
    </clipPath>
    <g
       id="Q"
       clip-path="url(#P)">
      <path
         d="m 124 97 h 12 v 2 h -12 z m 0 0"
         fill="#5e5c64"
         id="path162" />
    </g>
    <mask
       id="R">
      <g
         filter="url(#a)"
         id="g167">
        <rect
           fill-opacity="0.3"
           height="221.184"
           width="221.184"
           x="-46.592"
           y="-46.592"
           id="rect165" />
      </g>
    </mask>
    <clipPath
       id="S">
      <rect
         height="152"
         width="192"
         id="rect170" />
    </clipPath>
    <g
       id="T"
       clip-path="url(#S)">
      <path
         d="m 124 101 h 12 v 2 h -12 z m 0 0"
         fill="#5e5c64"
         id="path173" />
    </g>
    <clipPath
       id="U">
      <path
         d="m 0 0 h 128 v 128 h -128 z m 0 0"
         id="path176" />
    </clipPath>
    <mask
       id="V">
      <g
         filter="url(#a)"
         id="g181">
        <rect
           fill-opacity="0.3"
           height="221.184"
           width="221.184"
           x="-46.592"
           y="-46.592"
           id="rect179" />
      </g>
    </mask>
    <clipPath
       id="W">
      <rect
         height="152"
         width="192"
         id="rect184" />
    </clipPath>
    <g
       id="X"
       clip-path="url(#W)">
      <path
         d="m 86 80 h 6 v 32 h -6 z m 0 0"
         fill="#ffffff"
         id="path187" />
    </g>
    <clipPath
       id="Y">
      <rect
         height="128"
         width="128"
         id="rect190" />
    </clipPath>
    <clipPath
       id="Z">
      <rect
         height="128"
         width="128"
         id="rect193" />
    </clipPath>
    <mask
       id="aa">
      <g
         filter="url(#a)"
         id="g308">
        <g
           clip-path="url(#Z)"
           filter="url(#a)"
           id="g306">
          <g
             clip-path="url(#Y)"
             id="g304">
            <g
               clip-path="url(#u)"
               id="g198">
              <path
                 d="m 18.828125 246 h 2.34375 c 3.769531 0 6.828125 3.058594 6.828125 6.828125 v 6.34375 c 0 3.769531 -3.058594 6.828125 -6.828125 6.828125 h -2.34375 c -3.769531 0 -6.828125 -3.058594 -6.828125 -6.828125 v -6.34375 c 0 -3.769531 3.058594 -6.828125 6.828125 -6.828125 z m 0 0"
                 fill="none"
                 stroke="url(#c)"
                 stroke-linecap="round"
                 stroke-width="4"
                 transform="matrix(1 0 0 1 0 -172)"
                 id="path196" />
            </g>
            <g
               clip-path="url(#v)"
               id="g202">
              <path
                 d="m 18.828125 190 h 2.34375 c 3.769531 0 6.828125 3.058594 6.828125 6.828125 v 6.34375 c 0 3.769531 -3.058594 6.828125 -6.828125 6.828125 h -2.34375 c -3.769531 0 -6.828125 -3.058594 -6.828125 -6.828125 v -6.34375 c 0 -3.769531 3.058594 -6.828125 6.828125 -6.828125 z m 0 0"
                 fill="none"
                 stroke="url(#d)"
                 stroke-linecap="round"
                 stroke-width="4"
                 transform="matrix(1 0 0 1 0 -172)"
                 id="path200" />
            </g>
            <g
               clip-path="url(#w)"
               id="g206">
              <path
                 d="m 18.828125 204 h 2.34375 c 3.769531 0 6.828125 3.058594 6.828125 6.828125 v 6.34375 c 0 3.769531 -3.058594 6.828125 -6.828125 6.828125 h -2.34375 c -3.769531 0 -6.828125 -3.058594 -6.828125 -6.828125 v -6.34375 c 0 -3.769531 3.058594 -6.828125 6.828125 -6.828125 z m 0 0"
                 fill="none"
                 stroke="url(#e)"
                 stroke-linecap="round"
                 stroke-width="4"
                 transform="matrix(1 0 0 1 0 -172)"
                 id="path204" />
            </g>
            <g
               clip-path="url(#x)"
               id="g210">
              <path
                 d="m 18.828125 218 h 2.34375 c 3.769531 0 6.828125 3.058594 6.828125 6.828125 v 6.34375 c 0 3.769531 -3.058594 6.828125 -6.828125 6.828125 h -2.34375 c -3.769531 0 -6.828125 -3.058594 -6.828125 -6.828125 v -6.34375 c 0 -3.769531 3.058594 -6.828125 6.828125 -6.828125 z m 0 0"
                 fill="none"
                 stroke="url(#f)"
                 stroke-linecap="round"
                 stroke-width="4"
                 transform="matrix(1 0 0 1 0 -172)"
                 id="path208" />
            </g>
            <g
               clip-path="url(#y)"
               id="g214">
              <path
                 d="m 18.828125 232 h 2.34375 c 3.769531 0 6.828125 3.058594 6.828125 6.828125 v 6.34375 c 0 3.769531 -3.058594 6.828125 -6.828125 6.828125 h -2.34375 c -3.769531 0 -6.828125 -3.058594 -6.828125 -6.828125 v -6.34375 c 0 -3.769531 3.058594 -6.828125 6.828125 -6.828125 z m 0 0"
                 fill="none"
                 stroke="url(#g)"
                 stroke-linecap="round"
                 stroke-width="4"
                 transform="matrix(1 0 0 1 0 -172)"
                 id="path212" />
            </g>
            <path
               d="m 28 34 h 72 c 4.417969 0 8 3.582031 8 8 v 70 c 0 4.417969 -3.582031 8 -8 8 h -72 c -4.417969 0 -8 -3.582031 -8 -8 v -70 c 0 -4.417969 3.582031 -8 8 -8 z m 0 0"
               fill="#15b27b"
               id="path216" />
            <g
               clip-path="url(#z)"
               id="g220">
              <path
                 d="m 18.828125 260 h 2.34375 c 3.769531 0 6.828125 3.058594 6.828125 6.828125 v 6.34375 c 0 3.769531 -3.058594 6.828125 -6.828125 6.828125 h -2.34375 c -3.769531 0 -6.828125 -3.058594 -6.828125 -6.828125 v -6.34375 c 0 -3.769531 3.058594 -6.828125 6.828125 -6.828125 z m 0 0"
                 fill="none"
                 stroke="url(#h)"
                 stroke-linecap="round"
                 stroke-width="4"
                 transform="matrix(1 0 0 1 0 -172)"
                 id="path218" />
            </g>
            <path
               d="m 104.941406 65 c -1.632812 0.03125 -2.941406 1.363281 -2.941406 3 v 24 c 0 2.121094 2.144531 3.570312 4.113281 2.785156 l 20 -8 c 1.140625 -0.457031 1.886719 -1.558594 1.886719 -2.785156 v -8 c 0 -1.226562 -0.746094 -2.332031 -1.886719 -2.785156 l -20 -8 c -0.371093 -0.148438 -0.769531 -0.222656 -1.171875 -0.214844 z m 0 0"
               fill="url(#i)"
               id="path222" />
            <path
               d="m 28 32 h 72 c 4.417969 0 8 3.582031 8 8 v 70 c 0 4.417969 -3.582031 8 -8 8 h -72 c -4.417969 0 -8 -3.582031 -8 -8 v -70 c 0 -4.417969 3.582031 -8 8 -8 z m 0 0"
               fill="url(#j)"
               id="path224" />
            <path
               d="m 28 8 h 72 c 4.417969 0 8 3.582031 8 8 v 84 c 0 4.417969 -3.582031 8 -8 8 h -72 c -4.417969 0 -8 -3.582031 -8 -8 v -84 c 0 -4.417969 3.582031 -8 8 -8 z m 0 0"
               fill="#ffffff"
               id="path226" />
            <path
               d="m 40 64 h 60 v 16 h -60 z m 0 0"
               fill="#deddda"
               id="path228" />
            <path
               d="m 40 34 h 60 v 16 h -60 z m 0 0"
               fill="#deddda"
               id="path230" />
            <path
               d="m 72 64 h 19.921875 c 4.417969 0 8 3.582031 8 8 v 16 c 0 4.417969 -3.582031 8 -8 8 h -19.921875 c -4.417969 0 -8 -3.582031 -8 -8 v -16 c 0 -4.417969 3.582031 -8 8 -8 z m 0 0"
               fill="url(#k)"
               id="path232" />
            <path
               d="m 40 42 h 24 v 16 h -24 z m 0 0"
               fill="#deddda"
               id="path234" />
            <path
               d="m 21 209.999435 c 0 1.65625 -1.34375 3 -3 3 s -3 -1.34375 -3 -3 s 1.34375 -3 3 -3 s 3 1.34375 3 3 z m 0 0"
               fill="#c0bfbc"
               stroke="#c0bfbc"
               stroke-linecap="round"
               stroke-width="2"
               transform="matrix(1 0 0 1 10 -186.999435)"
               id="path236" />
            <path
               d="m 21 237.999435 c 0 1.65625 -1.34375 3 -3 3 s -3 -1.34375 -3 -3 s 1.34375 -3 3 -3 s 3 1.34375 3 3 z m 0 0"
               fill="#c0bfbc"
               stroke="#c0bfbc"
               stroke-linecap="round"
               stroke-width="2"
               transform="matrix(1 0 0 1 10 -186.999435)"
               id="path238" />
            <path
               d="m 21 251.999435 c 0 1.65625 -1.34375 3 -3 3 s -3 -1.34375 -3 -3 s 1.34375 -3 3 -3 s 3 1.34375 3 3 z m 0 0"
               fill="#c0bfbc"
               stroke="#c0bfbc"
               stroke-linecap="round"
               stroke-width="2"
               transform="matrix(1 0 0 1 10 -186.999435)"
               id="path240" />
            <path
               d="m 21 223.999435 c 0 1.65625 -1.34375 3 -3 3 s -3 -1.34375 -3 -3 s 1.34375 -3 3 -3 s 3 1.34375 3 3 z m 0 0"
               fill="#c0bfbc"
               stroke="#c0bfbc"
               stroke-linecap="round"
               stroke-width="2"
               transform="matrix(1 0 0 1 10 -186.999435)"
               id="path242" />
            <path
               d="m 21 265.999435 c 0 1.65625 -1.34375 3 -3 3 s -3 -1.34375 -3 -3 s 1.34375 -3 3 -3 s 3 1.34375 3 3 z m 0 0"
               fill="#c0bfbc"
               stroke="#c0bfbc"
               stroke-linecap="round"
               stroke-width="2"
               transform="matrix(1 0 0 1 10 -186.999435)"
               id="path244" />
            <path
               d="m 21 279.999435 c 0 1.65625 -1.34375 3 -3 3 s -3 -1.34375 -3 -3 s 1.34375 -3 3 -3 s 3 1.34375 3 3 z m 0 0"
               fill="#c0bfbc"
               stroke="#c0bfbc"
               stroke-linecap="round"
               stroke-width="2"
               transform="matrix(1 0 0 1 10 -186.999435)"
               id="path246" />
            <g
               clip-path="url(#A)"
               id="g250">
              <path
                 d="m 12 238.828125 c 0 -3.78125 3.046875 -6.828125 6.828125 -6.828125 h 2.34375 c 3.78125 0 6.828125 3.046875 6.828125 6.828125"
                 fill="none"
                 stroke="#15b27b"
                 stroke-linecap="round"
                 stroke-width="4"
                 transform="matrix(1 0 0 1 0 -172)"
                 id="path248" />
            </g>
            <g
               clip-path="url(#B)"
               id="g254">
              <path
                 d="m 12 210.828125 c 0 -3.78125 3.046875 -6.828125 6.828125 -6.828125 h 2.34375 c 3.78125 0 6.828125 3.046875 6.828125 6.828125"
                 fill="none"
                 stroke="#15b27b"
                 stroke-linecap="round"
                 stroke-width="4"
                 transform="matrix(1 0 0 1 0 -172)"
                 id="path252" />
            </g>
            <g
               clip-path="url(#C)"
               id="g258">
              <path
                 d="m 12 196.828125 c 0 -3.78125 3.046875 -6.828125 6.828125 -6.828125 h 2.34375 c 3.78125 0 6.828125 3.046875 6.828125 6.828125"
                 fill="none"
                 stroke="#15b27b"
                 stroke-linecap="round"
                 stroke-width="4"
                 transform="matrix(1 0 0 1 0 -172)"
                 id="path256" />
            </g>
            <g
               clip-path="url(#D)"
               id="g262">
              <path
                 d="m 12 224.828125 c 0 -3.78125 3.046875 -6.828125 6.828125 -6.828125 h 2.34375 c 3.78125 0 6.828125 3.046875 6.828125 6.828125"
                 fill="none"
                 stroke="#15b27b"
                 stroke-linecap="round"
                 stroke-width="4"
                 transform="matrix(1 0 0 1 0 -172)"
                 id="path260" />
            </g>
            <g
               clip-path="url(#E)"
               id="g266">
              <path
                 d="m 12 252.828125 c 0 -3.78125 3.046875 -6.828125 6.828125 -6.828125 h 2.34375 c 3.78125 0 6.828125 3.046875 6.828125 6.828125"
                 fill="none"
                 stroke="#15b27b"
                 stroke-linecap="round"
                 stroke-width="4"
                 transform="matrix(1 0 0 1 0 -172)"
                 id="path264" />
            </g>
            <path
               d="m 40 20 h 44 v 6 h -44 z m 0 0"
               fill="#c0bfbc"
               id="path268" />
            <g
               clip-path="url(#F)"
               id="g272">
              <path
                 d="m 12 266.828125 c 0 -3.78125 3.046875 -6.828125 6.828125 -6.828125 h 2.34375 c 3.78125 0 6.828125 3.046875 6.828125 6.828125"
                 fill="none"
                 stroke="#15b27b"
                 stroke-linecap="round"
                 stroke-width="4"
                 transform="matrix(1 0 0 1 0 -172)"
                 id="path270" />
            </g>
            <path
               d="m 84 64 l 32 -24.3125 v 80.625 l -32 -24.3125 z m 0 0"
               fill="url(#l)"
               id="path274" />
            <g
               clip-path="url(#G)"
               id="g294">
              <g
                 clip-path="url(#H)"
                 id="g292">
                <g
                   mask="url(#I)"
                   id="g278">
                  <use
                     transform="matrix(1 0 0 1 -8 -16)"
                     xlink:href="#K"
                     id="use276" />
                </g>
                <g
                   mask="url(#L)"
                   id="g282">
                  <use
                     transform="matrix(1 0 0 1 -8 -16)"
                     xlink:href="#N"
                     id="use280" />
                </g>
                <g
                   mask="url(#O)"
                   id="g286">
                  <use
                     transform="matrix(1 0 0 1 -8 -16)"
                     xlink:href="#Q"
                     id="use284" />
                </g>
                <g
                   mask="url(#R)"
                   id="g290">
                  <use
                     transform="matrix(1 0 0 1 -8 -16)"
                     xlink:href="#T"
                     id="use288" />
                </g>
              </g>
            </g>
            <path
               d="m 116 212 v 80.3125"
               fill="none"
               stroke="url(#s)"
               stroke-linecap="round"
               stroke-linejoin="round"
               stroke-miterlimit="2"
               stroke-width="4"
               transform="matrix(1 0 0 1 0 -172)"
               id="path296" />
            <g
               clip-path="url(#U)"
               id="g302">
              <g
                 mask="url(#V)"
                 id="g300">
                <use
                   transform="matrix(1 0 0 1 -8 -16)"
                   xlink:href="#X"
                   id="use298" />
              </g>
            </g>
          </g>
        </g>
      </g>
    </mask>
    <mask
       id="ab">
      <g
         filter="url(#a)"
         id="g313">
        <rect
           fill-opacity="0.8"
           height="184.32"
           width="184.32"
           x="-28.16"
           y="-28.16"
           id="rect311" />
      </g>
    </mask>
    <linearGradient
       id="ac"
       gradientTransform="matrix(0 0.37 -0.98462 0 295.38501 -30.360001)"
       gradientUnits="userSpaceOnUse"
       x1="300"
       x2="428"
       y1="235"
       y2="235">
      <stop
         offset="0"
         stop-color="#f9f06b"
         id="stop316" />
      <stop
         offset="1"
         stop-color="#f5c211"
         id="stop318" />
    </linearGradient>
    <clipPath
       id="ad">
      <rect
         height="128"
         width="128"
         id="rect321" />
    </clipPath>
    <clipPath
       id="ae">
      <rect
         height="128"
         width="128"
         id="rect324" />
    </clipPath>
  </defs>
  <path
     d="m 18.828125 246 h 2.34375 c 3.769531 0 6.828125 3.058594 6.828125 6.828125 v 6.34375 c 0 3.769531 -3.058594 6.828125 -6.828125 6.828125 h -2.34375 c -3.769531 0 -6.828125 -3.058594 -6.828125 -6.828125 v -6.34375 c 0 -3.769531 3.058594 -6.828125 6.828125 -6.828125 z m 0 0"
     fill="none"
     stroke="url(#c)"
     stroke-linecap="round"
     stroke-width="4"
     transform="matrix(1 0 0 1 0 -172)"
     id="path329" />
  <path
     d="m 18.828125 190 h 2.34375 c 3.769531 0 6.828125 3.058594 6.828125 6.828125 v 6.34375 c 0 3.769531 -3.058594 6.828125 -6.828125 6.828125 h -2.34375 c -3.769531 0 -6.828125 -3.058594 -6.828125 -6.828125 v -6.34375 c 0 -3.769531 3.058594 -6.828125 6.828125 -6.828125 z m 0 0"
     fill="none"
     stroke="url(#d)"
     stroke-linecap="round"
     stroke-width="4"
     transform="matrix(1 0 0 1 0 -172)"
     id="path331" />
  <path
     d="m 18.828125 204 h 2.34375 c 3.769531 0 6.828125 3.058594 6.828125 6.828125 v 6.34375 c 0 3.769531 -3.058594 6.828125 -6.828125 6.828125 h -2.34375 c -3.769531 0 -6.828125 -3.058594 -6.828125 -6.828125 v -6.34375 c 0 -3.769531 3.058594 -6.828125 6.828125 -6.828125 z m 0 0"
     fill="none"
     stroke="url(#e)"
     stroke-linecap="round"
     stroke-width="4"
     transform="matrix(1 0 0 1 0 -172)"
     id="path333" />
  <path
     d="m 18.828125 218 h 2.34375 c 3.769531 0 6.828125 3.058594 6.828125 6.828125 v 6.34375 c 0 3.769531 -3.058594 6.828125 -6.828125 6.828125 h -2.34375 c -3.769531 0 -6.828125 -3.058594 -6.828125 -6.828125 v -6.34375 c 0 -3.769531 3.058594 -6.828125 6.828125 -6.828125 z m 0 0"
     fill="none"
     stroke="url(#f)"
     stroke-linecap="round"
     stroke-width="4"
     transform="matrix(1 0 0 1 0 -172)"
     id="path335" />
  <path
     d="m 18.828125 232 h 2.34375 c 3.769531 0 6.828125 3.058594 6.828125 6.828125 v 6.34375 c 0 3.769531 -3.058594 6.828125 -6.828125 6.828125 h -2.34375 c -3.769531 0 -6.828125 -3.058594 -6.828125 -6.828125 v -6.34375 c 0 -3.769531 3.058594 -6.828125 6.828125 -6.828125 z m 0 0"
     fill="none"
     stroke="url(#g)"
     stroke-linecap="round"
     stroke-width="4"
     transform="matrix(1 0 0 1 0 -172)"
     id="path337" />
  <path
     d="m 28 34 h 72 c 4.417969 0 8 3.582031 8 8 v 70 c 0 4.417969 -3.582031 8 -8 8 h -72 c -4.417969 0 -8 -3.582031 -8 -8 v -70 c 0 -4.417969 3.582031 -8 8 -8 z m 0 0"
     fill="#15b27b"
     id="path339" />
  <path
     d="m 18.828125 260 h 2.34375 c 3.769531 0 6.828125 3.058594 6.828125 6.828125 v 6.34375 c 0 3.769531 -3.058594 6.828125 -6.828125 6.828125 h -2.34375 c -3.769531 0 -6.828125 -3.058594 -6.828125 -6.828125 v -6.34375 c 0 -3.769531 3.058594 -6.828125 6.828125 -6.828125 z m 0 0"
     fill="none"
     stroke="url(#h)"
     stroke-linecap="round"
     stroke-width="4"
     transform="matrix(1 0 0 1 0 -172)"
     id="path341" />
  <path
     d="m 104.941406 65 c -1.632812 0.03125 -2.941406 1.363281 -2.941406 3 v 24 c 0 2.121094 2.144531 3.570312 4.113281 2.785156 l 20 -8 c 1.140625 -0.457031 1.886719 -1.558594 1.886719 -2.785156 v -8 c 0 -1.226562 -0.746094 -2.332031 -1.886719 -2.785156 l -20 -8 c -0.371093 -0.148438 -0.769531 -0.222656 -1.171875 -0.214844 z m 0 0"
     fill="url(#i)"
     id="path343" />
  <path
     d="m 28 32 h 72 c 4.417969 0 8 3.582031 8 8 v 70 c 0 4.417969 -3.582031 8 -8 8 h -72 c -4.417969 0 -8 -3.582031 -8 -8 v -70 c 0 -4.417969 3.582031 -8 8 -8 z m 0 0"
     fill="url(#j)"
     id="path345" />
  <path
     d="m 28 8 h 72 c 4.417969 0 8 3.582031 8 8 v 84 c 0 4.417969 -3.582031 8 -8 8 h -72 c -4.417969 0 -8 -3.582031 -8 -8 v -84 c 0 -4.417969 3.582031 -8 8 -8 z m 0 0"
     fill="#ffffff"
     id="path347" />
  <path
     d="m 40 64 h 60 v 16 h -60 z m 0 0"
     fill="#deddda"
     id="path349" />
  <path
     d="m 40 34 h 60 v 16 h -60 z m 0 0"
     fill="#deddda"
     id="path351" />
  <path
     d="m 72 64 h 19.921875 c 4.417969 0 8 3.582031 8 8 v 16 c 0 4.417969 -3.582031 8 -8 8 h -19.921875 c -4.417969 0 -8 -3.582031 -8 -8 v -16 c 0 -4.417969 3.582031 -8 8 -8 z m 0 0"
     fill="url(#k)"
     id="path353" />
  <path
     d="m 40 42 h 24 v 16 h -24 z m 0 0"
     fill="#deddda"
     id="path355" />
  <g
     stroke-linecap="round"
     id="g379">
    <path
       d="m 31 23 c 0 1.65625 -1.34375 3 -3 3 s -3 -1.34375 -3 -3 s 1.34375 -3 3 -3 s 3 1.34375 3 3 z m 0 0"
       fill="#c0bfbc"
       stroke="#c0bfbc"
       stroke-width="2"
       id="path357" />
    <path
       d="m 31 51 c 0 1.65625 -1.34375 3 -3 3 s -3 -1.34375 -3 -3 s 1.34375 -3 3 -3 s 3 1.34375 3 3 z m 0 0"
       fill="#c0bfbc"
       stroke="#c0bfbc"
       stroke-width="2"
       id="path359" />
    <path
       d="m 31 65 c 0 1.65625 -1.34375 3 -3 3 s -3 -1.34375 -3 -3 s 1.34375 -3 3 -3 s 3 1.34375 3 3 z m 0 0"
       fill="#c0bfbc"
       stroke="#c0bfbc"
       stroke-width="2"
       id="path361" />
    <path
       d="m 31 37 c 0 1.65625 -1.34375 3 -3 3 s -3 -1.34375 -3 -3 s 1.34375 -3 3 -3 s 3 1.34375 3 3 z m 0 0"
       fill="#c0bfbc"
       stroke="#c0bfbc"
       stroke-width="2"
       id="path363" />
    <path
       d="m 31 79 c 0 1.65625 -1.34375 3 -3 3 s -3 -1.34375 -3 -3 s 1.34375 -3 3 -3 s 3 1.34375 3 3 z m 0 0"
       fill="#c0bfbc"
       stroke="#c0bfbc"
       stroke-width="2"
       id="path365" />
    <path
       d="m 31 93 c 0 1.65625 -1.34375 3 -3 3 s -3 -1.34375 -3 -3 s 1.34375 -3 3 -3 s 3 1.34375 3 3 z m 0 0"
       fill="#c0bfbc"
       stroke="#c0bfbc"
       stroke-width="2"
       id="path367" />
    <path
       d="m 12 66.828125 c 0 -3.78125 3.046875 -6.828125 6.828125 -6.828125 h 2.34375 c 3.78125 0 6.828125 3.046875 6.828125 6.828125"
       fill="none"
       stroke="#15b27b"
       stroke-width="4"
       id="path369" />
    <path
       d="m 12 38.828125 c 0 -3.78125 3.046875 -6.828125 6.828125 -6.828125 h 2.34375 c 3.78125 0 6.828125 3.046875 6.828125 6.828125"
       fill="none"
       stroke="#15b27b"
       stroke-width="4"
       id="path371" />
    <path
       d="m 12 24.828125 c 0 -3.78125 3.046875 -6.828125 6.828125 -6.828125 h 2.34375 c 3.78125 0 6.828125 3.046875 6.828125 6.828125"
       fill="none"
       stroke="#15b27b"
       stroke-width="4"
       id="path373" />
    <path
       d="m 12 52.828125 c 0 -3.78125 3.046875 -6.828125 6.828125 -6.828125 h 2.34375 c 3.78125 0 6.828125 3.046875 6.828125 6.828125"
       fill="none"
       stroke="#15b27b"
       stroke-width="4"
       id="path375" />
    <path
       d="m 12 80.828125 c 0 -3.78125 3.046875 -6.828125 6.828125 -6.828125 h 2.34375 c 3.78125 0 6.828125 3.046875 6.828125 6.828125"
       fill="none"
       stroke="#15b27b"
       stroke-width="4"
       id="path377" />
  </g>
  <path
     d="m 40 20 h 44 v 6 h -44 z m 0 0"
     fill="#c0bfbc"
     id="path381" />
  <path
     d="m 12 94.828125 c 0 -3.78125 3.046875 -6.828125 6.828125 -6.828125 h 2.34375 c 3.78125 0 6.828125 3.046875 6.828125 6.828125"
     fill="none"
     stroke="#15b27b"
     stroke-linecap="round"
     stroke-width="4"
     id="path383" />
  <path
     d="m 84 64 l 32 -24.3125 v 80.625 l -32 -24.3125 z m 0 0"
     fill="url(#l)"
     id="path385" />
  <g
     clip-path="url(#m)"
     id="g405">
    <g
       clip-path="url(#n)"
       id="g403">
      <g
         mask="url(#o)"
         id="g389">
        <use
           transform="matrix(1 0 0 1 -8 -16)"
           xlink:href="#K"
           id="use387" />
      </g>
      <g
         mask="url(#p)"
         id="g393">
        <use
           transform="matrix(1 0 0 1 -8 -16)"
           xlink:href="#N"
           id="use391" />
      </g>
      <g
         mask="url(#q)"
         id="g397">
        <use
           transform="matrix(1 0 0 1 -8 -16)"
           xlink:href="#Q"
           id="use395" />
      </g>
      <g
         mask="url(#r)"
         id="g401">
        <use
           transform="matrix(1 0 0 1 -8 -16)"
           xlink:href="#T"
           id="use399" />
      </g>
    </g>
  </g>
  <path
     d="m 116 212 v 80.3125"
     fill="none"
     stroke="url(#s)"
     stroke-linecap="round"
     stroke-linejoin="round"
     stroke-miterlimit="2"
     stroke-width="4"
     transform="matrix(1 0 0 1 0 -172)"
     id="path407" />
  <g
     mask="url(#t)"
     id="g411">
    <use
       transform="matrix(1 0 0 1 -8 -16)"
       xlink:href="#X"
       id="use409" />
  </g>
</svg>
